<?xml version="1.0" encoding="UTF-8"?>
<!DOCTYPE svg PUBLIC "-//W3C//DTD SVG 1.1//EN" "http://www.w3.org/Graphics/SVG/1.1/DTD/svg11.dtd">
<!-- Creator: CorelDRAW X6 -->
<svg xmlns="http://www.w3.org/2000/svg" xml:space="preserve" width="24px" height="24px" version="1.1" style="shape-rendering:geometricPrecision; text-rendering:geometricPrecision; image-rendering:optimizeQuality; fill-rule:evenodd; clip-rule:evenodd"
viewBox="0 0 41891 41891"
 xmlns:xlink="http://www.w3.org/1999/xlink">
 <defs>
  <style type="text/css">
   <![CDATA[
    .fil0 {fill:white;fill-rule:nonzero}
   ]]>
  </style>
 </defs>
 <g id="Layer_x0020_1">
  <metadata id="CorelCorpID_0Corel-Layer"/>
  <path class="fil0" d="M25906 14475l-3150 0c-372,0 -786,489 -786,1143l0 2274 3936 0 0 3242 -3936 0 0 9731 -3718 0 0 -9731 -3369 0 0 -3242 3369 0 0 -1907c0,-2736 1899,-4963 4504,-4963l3150 0 0 3453zm-4961 -14475c-11568,0 -20945,9378 -20945,20946 0,11568 9377,20945 20945,20945 11567,0 20946,-9377 20946,-20945 0,-11568 -9379,-20946 -20946,-20946z"/>
 </g>
</svg>
