<?xml version="1.0" encoding="UTF-8"?>
<!DOCTYPE svg PUBLIC "-//W3C//DTD SVG 1.1//EN" "http://www.w3.org/Graphics/SVG/1.1/DTD/svg11.dtd">
<!-- Creator: CorelDRAW X6 -->
<svg xmlns="http://www.w3.org/2000/svg" xml:space="preserve" width="24px" height="24px" version="1.1" style="shape-rendering:geometricPrecision; text-rendering:geometricPrecision; image-rendering:optimizeQuality; fill-rule:evenodd; clip-rule:evenodd"
viewBox="0 0 7003 7003"
 xmlns:xlink="http://www.w3.org/1999/xlink">
 <defs>
  <style type="text/css">
   <![CDATA[
    .fil0 {fill:white}
   ]]>
  </style>
 </defs>
 <g id="Layer_x0020_1">
  <metadata id="CorelCorpID_0Corel-Layer"/>
  <path class="fil0" d="M3502 0c1933,0 3501,1568 3501,3502 0,1933 -1568,3501 -3501,3501 -1934,0 -3502,-1568 -3502,-3501 0,-1934 1568,-3502 3502,-3502zm620 3502c0,-343 -278,-621 -620,-621 -343,0 -621,278 -621,621 0,342 278,620 621,620 342,0 620,-278 620,-620zm780 -1024c0,51 -42,93 -93,93l-279 0c-51,0 -93,-42 -93,-93l0 -279c0,-51 42,-93 93,-93l279 0c51,0 93,42 93,93l0 279zm-255 -643l-2291 0c-288,0 -521,233 -521,520l0 565 844 0c182,-258 483,-426 823,-426 339,0 640,168 822,426l844 0 0 -565c0,-287 -233,-520 -521,-520zm-138 1667c0,556 -451,1007 -1007,1007 -557,0 -1008,-451 -1008,-1007 0,-67 6,-132 19,-194l-678 0 0 1339c0,288 233,521 521,521l2291 0c288,0 521,-233 521,-521l0 -1339 -678 0c13,62 19,127 19,194z"/>
 </g>
</svg>
