<?xml version="1.0" encoding="utf-8"?>
<!-- Generator: Adobe Illustrator 16.0.0, SVG Export Plug-In . SVG Version: 6.00 Build 0)  -->
<!DOCTYPE svg PUBLIC "-//W3C//DTD SVG 1.1//EN" "http://www.w3.org/Graphics/SVG/1.1/DTD/svg11.dtd">
<svg version="1.1" id="Layer_1" xmlns="http://www.w3.org/2000/svg" xmlns:xlink="http://www.w3.org/1999/xlink" x="0px" y="0px"
	 width="173px" height="40.125px" viewBox="0 0 173 40.125" enable-background="new 0 0 173 40.125" xml:space="preserve">
<g>
	<g>
		<path fill="#FFFFFF" d="M172.985,21.743c-0.23-1.631-2.516-2.326-2.516-2.326s-2.543-0.683-4.219-0.732
			c-3.86-0.113-8.896,0.348-8.896,0.348s-2.287-0.124-2.947-0.195c-1.534-0.167-2.688-0.808-2.688-0.808l-6.183-0.092l-1.059,2.773
			c0,0-2.267-0.328-3.648-1.116c-1.399-0.799-1.248-1.502-1.248-1.502l-6.794-0.264c0,0-3.006-2.026-4.91-4.056
			c-2.26-2.408-2.003-3.407-2.003-3.407s8.963,1.205,18.055,0.037c7.776-0.999,17.821-5.985,17.821-5.985l-1.422-1.095
			c0,0-7.282,3.975-15.84,4.749c-22.189,2.005-27.442-3.34-35.995-6.59c0.328,0.258-6.178-1.212-15.674-1.481
			c-1.71-0.048-9.03,2.03-15.661,2.516c-6.004,0.44-9.822,0.102-9.822,0.102S55.19,1.61,48.531,1.493
			c-8.355-0.147-11.662,0.716-11.662,0.716s-2.423-1.009-5.071-0.862c-2.053,0.114-3.656,1.674-3.656,1.674S25.499,3.027,24,3.238
			c-1.546,0.217-1.95,0.639-1.95,0.639s-1.668,0.695-2.379,1.412c-1.548,1.559-2.855,3.862-2.855,3.862s-1.791,2.143-3.535,3.145
			c-2.392,1.374-4.946,1.726-4.946,1.726S7.347,14.72,7.186,15.6c-0.125,0.682,0.566,1.597,0.566,1.597s0.694,1.737,1.493,2.409
			c1.151,0.969,2.538,0.984,2.538,0.984s4.521,0.208,6.909-0.306c2.317-0.499,2.839-1.272,2.839-1.272s1.499,0.038,3.603,0.18
			c2.58,0.174,5.525,0.012,5.525,0.012s2.041-0.264,2.868-1.101c0.715-0.724,0.232-2.037,0.232-2.037s1.282,0.696,2.707,0.838
			c1.674,0.166,3.531-0.218,3.531-0.218l-0.784,2.719l-0.693,5.364c0,0-2.051,1.455-4.568,1.846
			c-2.972,0.461-6.686,0.234-6.686,0.234s-3.665,1.515-6.921,2.482c-5.225,1.553-10.807,2.479-10.807,2.479s-3.02,0.04-4.834,0.334
			c-2.384,0.387-3.719,1.053-3.719,1.053L0,36.41c0,0,0.484,1.02,2.02,1.819c1.052,0.547,3.342,0.972,3.342,0.972
			s0.479,0.856,2.964,0.921c2.038,0.053,6.173-0.684,6.173-0.684l1.952-3.357l7.751-0.82c0,0,4.419-1.264,8.786-1.267
			c5.48-0.003,11.308,1.247,13.1,1.138c2.205-0.135,3.667-1.715,3.667-1.715s1.444-1.054,2.407-2.842
			c1.031-1.912,1.587-4.565,1.587-4.565l3.374,0.767l0.064-0.123l-0.142-0.078l1.18-0.747l1.926-4.928c0,0,0.484,1.08,2.16,2.104
			c2.595,1.586,6.795,3.37,6.795,3.37s-2.498-0.034-5.23-0.72c-2.323-0.583-5.466-2.05-5.466-2.05l-0.628,1.893l-0.595,1.156
			l7.317,3.991c0,0,2.277,0.857,5.62,1.34c3.22,0.465,7.539,0.476,7.539,0.476l-0.985-2.91c0,0-2.762,0.659-4.493,0.32
			c-1.104-0.217-1.607-1.671-1.607-1.671l3.903-0.948c0,0,2.343-0.938,3.868-1.895c2.108-1.321,3.598-2.824,3.682-3.27
			c0.146-0.766,0.62,2.811,0.62,2.811l-5.973,4.652l0.985,2.91c0,0,1.698-1.838,4.023-3.333c1.79-1.15,5.288-2.998,5.288-2.998
			l0.055-2.18l-2.116-2.537l2.48-0.036l-0.364,2.573l-0.055,2.18l3.958-1.779l8.841-1.725l0,0l0,0l0,0l0.045-2.167l-4.29-1.235
			l3.794,0.073l0.451,3.329l0,0l8.017,0.178l0,0L107.844,19v-1.516c-0.35-0.253-2.619-1.05-4.645-3.233l-2.167-2.734l-1.651-5.909
			c0,0-1.245,2.004-1.183,3.15c0.072,1.313,0.715,2.175,0.715,2.175s0.059,1.864,1.281,3.359c1.216,1.486,3.596,2.604,3.596,2.604
			s0.26,0.756-0.987,1.006c-1.135,0.228-3.786-0.047-3.786-0.047s-1.581-0.466-3.847-1.799c-1.837-1.081-4.448-3.08-4.448-3.08
			s1.117,1.848,0.711,2.675c-0.427,0.871-2.379,0.723-2.379,0.723s-3.093-0.449-4.774-1.023c-1.096-0.375-0.92-0.865-1.208-1.104
			c-0.417-0.345-1.093,0.649-0.581,1.753c0.385,0.828,1.957,1.813,1.957,1.813s-2.619-0.458-4.283-1.526
			c-1.085-0.696-1.471-2.165-1.471-2.165s-0.716,0.774-0.574,1.701c0.201,1.302,1.282,2.886,1.282,2.886s-2.217-0.871-3.667-1.903
			c-1.447-1.031-2.127-2.226-2.127-2.226s-0.447,1.05-0.231,2.128c0.277,1.385,1.231,2.876,1.231,2.876s-0.872-0.473-2.008-1.25
			c-1.236-0.846-2.744-2.002-2.744-2.002s0.212,0.996,0.682,2.197c0.411,1.051,1.089,2.327,1.089,2.327s-1.81,0.272-3.059-0.778
			c-1.189-1-1.82-3.326-1.82-3.326s-0.137,2.3,0.311,3.448c0.595,1.527,1.817,2.012,1.817,2.012s-4.565-1.084-5.752-2.127
			c-1.188-1.042,2.542-4.837,2.542-4.837l-2.542-2.94l1.792-5.671c0,0-2.912,1.569-4.468,4.528
			c-1.089,2.071-0.994,5.856-0.994,5.856l-4.877,7.381l0.875-7.34c0,0-2.376,4.94-6.076,7.913c-3.266,2.625-7.91,3.326-7.91,3.326
			l3.856,0.333l-0.667,2.898l-20.152,1.26c0,0-7.819,0.98-12.168,2.019c-1.737,0.415-2.424,1.599-2.424,1.599
			s-2.622,0.829-4.303,0.846c-1.964,0.019-3.886-0.955-3.85-1.234c0.41-3.18,8.358-2.11,8.358-2.11s7.729-1.383,12.733-3.029
			c3.44-1.132,5.01-2.069,5.01-2.069s3.082,0.01,6.054-0.434c3.489-0.52,6.697-2.162,6.697-2.162s0.404-1.726,0.805-3.311
			c0.333-1.32,0.675-2.549,0.675-2.549l2.363-4.783c0,0-3.403-0.623-6.717-1.327c-2.354-0.5-3.755-0.083-3.755-0.083L33.128,9.87
			c0,0-0.684,2.604-2.15,4.058C29.967,14.931,28,14.957,28,14.957l-7.586,0.438l0.432,2.036c0,0-3.35,1.33-5.823,1.514
			c-1.823,0.135-2.968-0.86-2.968-0.86s-1.785,0.291-2.381-0.492c-0.5-0.655,0.172-2.406,0.172-2.406s3.006-0.719,5.111-1.766
			c1.166-0.58,2.018-1.779,2.018-1.779s1.994,0.174,3.098-0.13c1.008-0.278,1.134-1.037,1.134-1.037l-3.252-0.584
			c0,0,0.87-1.219,2.343-2.498c1.048-0.909,2.847-2.007,2.847-2.007l6.629-1.084c0,0,3.886-0.794,6.05-0.128
			c2.171,0.668,2.621,2.797,2.621,2.797S37.576,7.716,36.8,7.617c-1.111-0.143-2.254-1.146-2.254-1.146l-5.67,0.083
			c0,0,5.487,2.93,8.91,3.619c1.511,0.304,2.7-1.284,2.7-1.284l-1.167-5.483c0,0,7.101,0.145,7.964,0.124
			c5.498-0.137,18.829,0.957,29.845,0.337c9.104-0.512,14.448-5.235,29.787-0.013c10.55,3.592,19.227,10.297,19.227,10.297
			s1.225,2.879,3.765,4.767c2.223,1.652,5.803,2.344,5.803,2.344s1.86,0.424,3.662,0.811c1.794,0.386,3.529,0.732,3.529,0.732
			s1.924-0.202,3.425-1.024c1.347-0.737,2.287-2.104,2.287-2.104l11.631,1.23l5.607-1.251c0,0,2.079,0.323,3.001,0.833
			c0.869,0.48,0.583,1.147,0.583,1.147s0.158,1.645-0.989,2.207c-1.452,0.712-4.283,0.379-4.283,0.379s-2.492,0.074-3.999-0.193
			c-1.289-0.229-1.629-0.808-1.629-0.808s-2.908-0.464-4.444-0.521c-2.655-0.098-4.252,0.399-4.252,0.399s-1.356,0.855-1.99,1.376
			c-1.104,0.908-2.091,1.499-2.091,1.499l-8.942,0.792c0,0-7.374,0.4-11.231-0.021c-1.974-0.215-1.788-1.4-1.788-1.4
			s2.599,0.265,4.557,0.246c2.127-0.021,3.626-0.325,3.626-0.325l-6.46-1.028c0,0-1.584-1.823-4.943-3.17
			c-1.842-0.738-4.411-0.744-6.187-1.193c-1.404-0.356-2.819-0.911-2.819-0.911s-0.639-2.321-1.775-3.06
			c-1.019-0.661-3.226-1.115-4.312-1.791c-2.397-1.493-3.467-3.044-3.467-3.044l-2.635-5.46c0,0,0.01,3.983,1.457,6.188
			c0.595,0.908,2.038,2.583,2.778,3.381l3.265,2.408l0.963-0.102c0.031,0.023-0.568,0.333-0.568,0.333L107.844,19l-0.054,3.803l0,0
			l0.431,1.996c0,0,1.396,2.416,3.694,3.706c2.699,1.516,6.453,1.739,6.453,1.739l0,0l0,0l3.312-3.212
			c-0.527-0.002-4.95-0.088-7.065-0.723c-3.037-0.911-5.41-2.605-5.41-2.605l1.55-2.573c0,0,0.503,1.662,2.651,2.947
			c2.574,1.538,7.454,1.423,7.454,1.423l-0.245,1.485c0.057,0,0.088,0,0.088,0l-2.335,3.258l8.31-0.829c0,0,1.729-0.856,3.221-0.959
			c1.304-0.089,2.397,0.576,2.397,0.576s3.821,0.473,6.691,0.2c2.482-0.236,4.069-1.222,4.069-1.222s2.395-0.837,4.142-1.718
			c1.552-0.782,2.479-1.622,2.479-1.622s2.33-0.651,4.411-0.61c1.465,0.03,2.903,0.757,2.903,0.757l7.715,2.591
			c0,0,2.544,0.131,4.179-0.347c1.676-0.489,2.441-1.587,2.441-1.587S173.18,23.119,172.985,21.743z"/>
	</g>
	<g>
		<path fill="#FFFFFF" fill-rule="evenodd" clip-rule="evenodd" d="M147.08,25.432c0,0,1.664,1.672,3.604,2.871
			c1.525,0.942,3.425,1.476,3.425,1.476s2.997,0.961,3.387-0.253c1.365-4.246-5.822-3.469-5.573-3.374
			c-1.992-0.764-1.596-1.926-1.596-1.926l1.072-0.649c0,0-0.207,1.064,1.086,1.593c1.054,0.43,3.563-0.048,4.845,0.194
			c1.341,0.254,1.431,1.219,1.431,1.219s1.054,2.174,0.298,3.499c-0.622,1.09-3.079,1.377-3.079,1.377s-2.642-0.124-5.295-1.548
			c-2.13-1.142-4.388-3.646-4.388-3.646L147.08,25.432z"/>
	</g>
</g>
</svg>
