<?xml version="1.0" encoding="UTF-8"?>
<!DOCTYPE svg PUBLIC "-//W3C//DTD SVG 1.1//EN" "http://www.w3.org/Graphics/SVG/1.1/DTD/svg11.dtd">
<!-- Creator: CorelDRAW X6 -->
<svg xmlns="http://www.w3.org/2000/svg" xml:space="preserve" width="24px" height="24px" version="1.1" style="shape-rendering:geometricPrecision; text-rendering:geometricPrecision; image-rendering:optimizeQuality; fill-rule:evenodd; clip-rule:evenodd"
viewBox="0 0 16818 16818"
 xmlns:xlink="http://www.w3.org/1999/xlink">
 <defs>
  <style type="text/css">
   <![CDATA[
    .fil0 {fill:white;fill-rule:nonzero}
   ]]>
  </style>
 </defs>
 <g id="Layer_x0020_1">
  <metadata id="CorelCorpID_0Corel-Layer"/>
  <path class="fil0" d="M8408 0c-4644,0 -8408,3765 -8408,8409 0,4644 3764,8409 8408,8409 4645,0 8410,-3765 8410,-8409 0,-4644 -3765,-8409 -8410,-8409zm722 12555l-3437 0 0 -8293 3754 0c1088,0 2092,692 2092,1913 0,943 -528,1589 -1199,1789l0 24c995,205 1706,747 1706,2052 0,1207 -821,2515 -2916,2515zm73 -5197c223,-170 338,-473 338,-750 0,-303 -140,-594 -397,-750 -270,-158 -761,-121 -1078,-121l-434 0 0 1813 574 0c330,0 715,25 997,-192zm377 1759c-270,-158 -645,-158 -950,-158l-998 0 0 2060 916 0c340,0 774,25 1067,-180 268,-183 420,-536 420,-876 0,-314 -187,-690 -455,-846z"/>
 </g>
</svg>
